<svg width="357" height="720" viewBox="0 0 357 720" fill="none" xmlns="http://www.w3.org/2000/svg">
<g opacity="0.15">
<path d="M53.5 410.998C42.1667 410.998 42.1667 427.998 53.5 427.998C64.8333 427.998 64.8333 410.998 53.5 410.998Z" fill="white"/>
<path d="M281.5 25.9995C270.167 25.9995 270.167 42.9992 281.5 42.9992C292.833 42.9992 292.833 25.9995 281.5 25.9995Z" fill="white"/>
<path d="M79.0264 385C70.9912 385 70.9912 397 79.0264 397C86.9206 397 87.0615 385 79.0264 385Z" fill="white"/>
<path d="M307.026 0C298.991 0 298.991 11.9998 307.026 11.9998C314.921 11.9998 315.062 0 307.026 0Z" fill="white"/>
<path d="M53 468.993C47.6667 468.993 47.6667 475.993 53 475.993C58.3333 475.993 58.3333 468.993 53 468.993Z" fill="white"/>
<path d="M281 83.999C275.667 83.999 275.667 90.9989 281 90.9989C286.333 90.9989 286.333 83.999 281 83.999Z" fill="white"/>
<path d="M66.0271 441.995C60.6576 441.995 60.6576 448.995 66.0271 448.995C71.2515 448.995 71.3966 441.995 66.0271 441.995Z" fill="white"/>
<path d="M294.027 56.999C288.658 56.999 288.658 63.9989 294.027 63.9989C299.251 63.9989 299.397 56.999 294.027 56.999Z" fill="white"/>
<path d="M109.5 394.999C104.833 394.999 104.833 401.999 109.5 401.999C114.167 401.999 114.167 394.999 109.5 394.999Z" fill="white"/>
<path d="M337.5 10C332.833 10 332.833 16.9999 337.5 16.9999C342.167 16.9999 342.167 10 337.5 10Z" fill="white"/>
<path d="M45 503.991C42.3333 503.991 42.3333 506.991 45 506.991C47.6667 506.991 47.6667 503.991 45 503.991Z" fill="white"/>
<path d="M273 118.998C270.333 118.998 270.333 121.998 273 121.998C275.667 121.998 275.667 118.998 273 118.998Z" fill="white"/>
<path d="M2.55102 512.99C-0.85034 512.99 -0.85034 517.99 2.55102 517.99C5.81633 517.99 5.81633 512.99 2.55102 512.99Z" fill="white"/>
<path d="M230.551 127.998C227.15 127.998 227.15 132.998 230.551 132.998C233.816 132.998 233.816 127.998 230.551 127.998Z" fill="white"/>
<path d="M18 464.994C12.6667 464.994 12.6667 471.994 18 471.994C23.3333 471.994 23.3333 464.994 18 464.994Z" fill="white"/>
<path d="M246 79.999C240.667 79.999 240.667 86.9989 246 86.9989C251.333 86.9989 251.333 79.999 246 79.999Z" fill="white"/>
<path d="M21 424.997C15.6667 424.997 15.6667 432.997 21 432.997C26.3333 432.997 26.3333 424.997 21 424.997Z" fill="white"/>
<path d="M249 39.9995C243.667 39.9995 243.667 47.9994 249 47.9994C254.333 47.9994 254.333 39.9995 249 39.9995Z" fill="white"/>
<path d="M294.889 357.436C267.262 389.415 277.647 444.349 287.639 497.714C298.612 555.59 309.78 615.429 272.944 647.016C244.534 671.54 208.678 662.123 170.862 652.314C141.472 644.662 111.102 636.814 83.8673 645.839C50.5584 657.022 24.3032 682.92 13.5268 715.291C12.939 716.861 12.5471 718.43 12.1553 720H10C10.5878 718.234 10.9797 716.469 11.5675 714.703C22.5398 681.742 49.3828 655.453 83.0836 644.073C110.71 634.852 141.472 642.7 171.254 650.548C208.678 660.161 243.946 669.382 271.573 645.643C307.625 614.841 296.456 555.59 285.68 498.302C275.491 444.742 265.107 389.219 293.321 356.455C306.645 340.956 327.806 331.538 357 328.007V329.969C328.394 333.304 307.82 342.525 294.889 357.436Z" fill="white"/>
</g>
</svg>
